<?xml version="1.0" standalone="no"?>
<!DOCTYPE svg PUBLIC "-//W3C//DTD SVG 20010904//EN"
 "http://www.w3.org/TR/2001/REC-SVG-20010904/DTD/svg10.dtd">
<svg version="1.0" xmlns="http://www.w3.org/2000/svg"
 width="767.000000pt" height="766.000000pt" viewBox="0 0 767.000000 766.000000"
 preserveAspectRatio="xMidYMid meet">

<g transform="translate(0.000000,766.000000) scale(0.100000,-0.100000)"
fill="#ffffff" stroke="none">
<path d="M2 3828 l3 -3833 2 3827 3 3828 3833 3 3832 2 -3837 3 -3838 2 2
-3832z"/>
<path d="M1450 6930 l0 -240 480 0 480 0 0 -240 0 -240 -240 0 -240 0 0 -240
0 -240 -240 0 -240 0 0 -480 0 -480 720 0 720 0 0 240 0 240 -480 0 -480 0 0
240 0 240 240 0 240 0 0 240 0 240 240 0 240 0 0 480 0 480 -720 0 -720 0 0
-240z"/>
<path d="M1450 3570 l0 -720 480 0 480 0 0 -240 0 -240 -480 0 -480 0 0 -480
0 -480 240 0 240 0 0 240 0 240 1920 0 1920 0 0 -240 0 -240 240 0 240 0 0
720 0 720 -960 0 -960 0 0 240 0 240 240 0 240 0 0 240 0 240 -960 0 -960 0 0
240 0 240 -240 0 -240 0 0 -240 0 -240 240 0 240 0 0 -480 0 -480 -240 0 -240
0 0 240 0 240 -240 0 -240 0 0 480 0 480 -240 0 -240 0 0 -720z"/>
</g>
</svg>
